<?xml version="1.0" standalone="no"?>
<!DOCTYPE svg PUBLIC "-//W3C//DTD SVG 20010904//EN"
 "http://www.w3.org/TR/2001/REC-SVG-20010904/DTD/svg10.dtd">
<svg version="1.0" xmlns="http://www.w3.org/2000/svg"
 width="500.000000pt" height="500.000000pt" viewBox="0 0 500.000000 500.000000"
 preserveAspectRatio="xMidYMid meet">

<g transform="translate(0.000000,500.000000) scale(0.100000,-0.100000)"
fill="#000000" stroke="none">
<path d="M1512 3445 l-93 -44 3 -121 3 -121 98 -52 97 -52 105 53 105 52 0
118 0 119 -97 46 c-54 26 -105 47 -113 47 -8 -1 -57 -21 -108 -45z m168 -60
c41 -21 64 -68 57 -118 -11 -79 -94 -125 -165 -90 -77 38 -93 134 -32 195 33
33 91 38 140 13z"/>
<path d="M1578 3374 c-28 -15 -54 -51 -44 -62 3 -3 6 0 6 6 0 26 40 52 80 52
53 0 90 -34 90 -83 0 -37 -32 -87 -56 -87 -8 0 -14 -5 -14 -10 0 -16 35 5 59
36 39 50 21 118 -39 149 -36 18 -47 18 -82 -1z"/>
<path d="M1566 3328 c-22 -31 -20 -60 5 -92 55 -70 155 18 103 92 -11 16 -25
22 -54 22 -29 0 -43 -6 -54 -22z"/>
<path d="M1521 3284 c0 -11 3 -14 6 -6 3 7 2 16 -1 19 -3 4 -6 -2 -5 -13z"/>
<path d="M1530 3243 c0 -5 10 -18 23 -29 l22 -19 -20 25 c-11 14 -21 27 -22
29 -2 2 -3 0 -3 -6z"/>
<path d="M1110 3397 c-24 -12 -52 -26 -62 -32 -17 -9 -18 -52 -18 -867 l0
-858 140 0 140 0 0 131 0 131 -27 -6 c-21 -5 -42 2 -83 27 l-55 33 -3 72 -3
73 63 28 c46 21 68 27 85 20 l23 -9 0 608 0 607 -22 12 c-57 30 -111 53 -121
53 -7 0 -32 -10 -57 -23z m93 -34 c-2 -7 3 -12 10 -10 19 3 21 -52 1 -74 -35
-39 -104 -13 -104 39 0 37 28 64 64 60 18 -2 30 -8 29 -15z m-82 -128 l49 -25
49 25 c27 13 52 33 54 42 4 14 5 13 6 -5 1 -18 -10 -28 -54 -49 l-55 -27 -55
27 c-53 26 -55 28 -53 64 1 38 1 38 5 5 4 -27 12 -36 54 -57z"/>
<path d="M1135 3320 c0 -35 1 -36 30 -30 23 4 30 11 30 30 0 19 -7 26 -30 30
-29 6 -30 5 -30 -30z"/>
<path d="M92 2503 l3 -858 28 -3 27 -3 0 860 0 861 -30 0 -30 0 2 -857z"/>
<path d="M300 2500 l0 -860 65 0 65 0 0 860 0 860 -65 0 -65 0 0 -860z"/>
<path d="M580 2500 l0 -860 120 0 120 0 0 341 c0 325 -1 340 -18 337 -10 -2
-42 8 -70 21 l-52 24 0 67 0 66 55 23 c30 13 62 20 70 17 13 -5 15 47 15 409
l0 415 -120 0 -120 0 0 -860z"/>
<path d="M1850 3255 l0 -105 -112 -56 c-118 -59 -111 -58 -180 -29 -17 7 -18
-5 -18 -169 l0 -176 23 9 c18 7 39 2 88 -19 l64 -29 3 -80 3 -80 -63 -32 c-53
-27 -67 -30 -90 -21 l-28 10 0 -225 c0 -176 3 -224 13 -220 6 3 35 16 64 28
l52 23 133 -63 c73 -35 137 -67 142 -72 5 -5 8 -75 7 -159 l-2 -150 1525 0
1526 0 0 860 0 860 -1575 0 -1575 0 0 -105z m496 -221 c66 -33 76 -55 43 -93
-18 -23 -23 -24 -42 -11 -57 36 -86 45 -143 45 -49 0 -68 -5 -102 -28 -109
-72 -110 -242 -3 -313 69 -45 158 -45 226 2 l38 25 24 -23 c38 -35 27 -58 -47
-96 -62 -32 -69 -34 -151 -30 -70 3 -94 9 -131 31 -91 53 -138 139 -138 251 0
80 32 149 95 204 90 79 220 93 331 36z m283 -96 c41 -71 78 -128 81 -128 3 1
38 59 79 130 l75 130 43 0 c28 0 43 -4 43 -12 0 -7 -41 -87 -92 -178 l-92
-165 -5 -100 -6 -100 -47 -3 -48 -3 0 92 0 91 -95 172 c-123 224 -118 208 -59
204 l48 -3 75 -127z m736 121 c21 -6 54 -26 72 -44 28 -28 33 -40 33 -81 0
-51 -27 -110 -56 -121 -12 -4 -8 -10 15 -24 61 -37 83 -134 45 -199 -37 -63
-77 -75 -264 -75 l-165 0 -3 255 c-1 140 0 265 3 278 5 21 9 22 143 22 75 0
155 -5 177 -11z m650 -34 l0 -40 -147 -3 -148 -3 0 -69 0 -69 128 -3 127 -3 3
-39 c2 -24 -2 -42 -10 -47 -7 -5 -66 -9 -130 -9 l-118 0 0 -70 0 -70 150 0
150 0 6 -24 c15 -62 18 -61 -204 -64 l-202 -2 0 280 0 280 198 -2 197 -3 0
-40z m498 12 c60 -35 87 -86 87 -162 0 -66 -26 -124 -70 -157 -17 -12 -30 -25
-30 -29 0 -3 23 -41 50 -83 28 -42 50 -81 50 -86 0 -6 -22 -10 -49 -10 l-48 0
-49 80 -48 80 -78 0 -78 0 0 -81 0 -80 -47 3 -48 3 -3 265 c-1 146 0 271 3
278 4 11 35 13 158 11 145 -4 154 -5 200 -32z m-2052 -777 c19 -5 48 -24 65
-41 26 -27 29 -37 29 -99 0 -59 -3 -72 -25 -95 -36 -40 -80 -55 -159 -55 l-70
0 -3 -62 -3 -63 -37 -3 -38 -3 0 215 0 216 103 0 c56 0 118 -5 138 -10z m249
-147 c5 -138 7 -155 26 -174 27 -26 94 -36 134 -19 51 21 60 52 60 210 l0 140
34 0 c22 0 36 -6 40 -16 9 -24 7 -234 -4 -278 -10 -45 -34 -81 -74 -110 -42
-32 -158 -34 -210 -4 -69 40 -80 72 -84 236 -2 78 -1 150 2 158 4 10 16 14 38
12 l33 -3 5 -152z m589 11 l110 -146 3 144 3 143 35 0 35 0 0 -210 0 -210 -36
-3 c-36 -3 -37 -2 -145 143 l-109 146 -3 -146 -3 -145 -33 0 -34 0 -7 154 c-4
84 -4 181 0 215 l7 61 33 0 c31 0 41 -9 144 -146z m381 52 c0 -52 4 -97 9
-100 5 -3 50 39 101 94 86 94 94 100 131 100 21 0 39 -3 39 -7 0 -5 -34 -46
-75 -92 l-75 -84 17 -26 c9 -14 45 -65 80 -113 35 -48 63 -92 63 -98 0 -5 -17
-10 -39 -10 -37 0 -41 4 -107 91 l-69 90 -37 -40 c-34 -35 -38 -46 -38 -91 l0
-50 -35 0 -35 0 0 215 0 215 35 0 35 0 0 -94z m614 80 c43 -18 51 -31 36 -65
l-11 -28 -52 18 c-86 30 -137 20 -137 -27 0 -26 7 -30 123 -74 71 -28 97 -58
97 -116 0 -52 -34 -97 -86 -114 -49 -16 -142 -8 -189 16 -53 28 -63 46 -41 78
l17 27 27 -19 c87 -61 215 -46 184 22 -7 17 -32 31 -91 51 -93 33 -120 57
-128 114 -7 48 12 82 60 111 39 24 141 27 191 6z"/>
<path d="M3148 2974 c-5 -4 -8 -36 -8 -72 l0 -64 94 4 c105 3 136 19 136 68 0
48 -32 65 -129 68 -47 2 -89 0 -93 -4z"/>
<path d="M3140 2675 l0 -75 88 0 c63 0 97 5 122 18 31 15 35 21 35 57 0 36 -4
42 -35 57 -25 13 -59 18 -122 18 l-88 0 0 -75z"/>
<path d="M4250 2875 l0 -105 90 0 c49 0 101 5 115 12 53 24 71 104 35 151 -26
33 -75 47 -167 47 l-73 0 0 -105z"/>
<path d="M2300 2120 l0 -80 59 0 c76 0 109 13 122 47 27 70 -20 113 -126 113
l-55 0 0 -80z"/>
<path d="M1512 2692 l-53 -27 3 -65 3 -65 62 -33 62 -33 61 31 60 30 0 70 0
70 -56 25 c-69 31 -76 30 -142 -3z m128 -42 c27 -27 25 -66 -5 -95 -53 -53
-126 -12 -115 65 6 49 82 68 120 30z"/>
<path d="M1557 2633 c-12 -12 -7 -50 8 -63 32 -27 82 23 55 55 -13 15 -51 20
-63 8z"/>
<path d="M1530 2576 c0 -2 8 -10 18 -17 15 -13 16 -12 3 4 -13 16 -21 21 -21
13z"/>
<path d="M733 2507 c-43 -21 -43 -21 -43 -76 l0 -56 48 -26 47 -26 53 25 52
26 0 56 0 55 -51 23 c-60 26 -53 26 -106 -1z m87 -27 c30 -16 34 -59 9 -86
-26 -28 -46 -30 -77 -8 -26 18 -29 60 -5 86 18 20 45 23 73 8z"/>
<path d="M755 2446 c0 -30 11 -43 40 -48 31 -6 35 -3 26 30 -5 19 -16 28 -37
33 -26 5 -30 3 -29 -15z"/>
<path d="M1199 2115 l-47 -24 -1 -64 -1 -64 60 -32 59 -32 56 32 55 31 0 64 0
64 -50 25 c-60 31 -73 31 -131 0z m105 -36 c34 -27 36 -81 4 -103 -73 -51
-151 48 -82 103 15 12 32 21 39 21 7 0 24 -9 39 -21z"/>
<path d="M1248 2058 c-9 -7 -18 -25 -20 -39 -4 -24 -2 -26 31 -25 30 1 37 5
39 24 3 22 -13 52 -27 52 -4 0 -14 -6 -23 -12z"/>
<path d="M1212 2030 c0 -14 2 -19 5 -12 2 6 2 18 0 25 -3 6 -5 1 -5 -13z"/>
<path d="M1533 1996 l-133 -61 3 -150 2 -150 129 -69 130 -69 133 67 133 66 0
152 -1 153 -62 29 c-34 15 -93 43 -132 61 l-70 32 -132 -61z m207 -78 c55 -38
75 -73 75 -131 0 -90 -63 -150 -157 -151 -112 0 -183 125 -127 224 42 75 143
103 209 58z"/>
<path d="M1620 1909 c-40 -16 -69 -50 -81 -91 -8 -32 -6 -46 10 -82 56 -127
241 -87 241 51 0 50 -32 101 -75 119 -39 16 -60 17 -95 3z m108 -25 c70 -49
66 -161 -8 -199 -82 -42 -170 14 -170 111 0 28 8 44 34 70 28 28 41 34 78 34
24 0 54 -7 66 -16z"/>
<path d="M1623 1870 c-24 -10 -53 -58 -53 -89 0 -12 13 -35 29 -53 67 -75 182
-7 150 89 -16 51 -72 74 -126 53z"/>
</g>
</svg>
